<svg width="133" height="89" viewBox="0 0 133 89" fill="none" xmlns="http://www.w3.org/2000/svg">
<path fill-rule="evenodd" clip-rule="evenodd" d="M29.0663 25.1072L33.6465 23.4904L37 22H0L5.39154 27.9682L22.6539 28C24.3064 26.9804 27.222 26.0518 29.0663 25.1072Z" fill="#1F3571"/>
<path fill-rule="evenodd" clip-rule="evenodd" d="M20.7816 33.7109C20.9193 32.1565 22 31 22 31L7 31.0316L12.3145 37L20.8473 36.8123C20.6999 35.9361 20.6794 34.8647 20.7816 33.7109Z" fill="#1F3571"/>
<path fill-rule="evenodd" clip-rule="evenodd" d="M21.6716 40.8307C20.9912 40.081 20.088 38.9309 19.4445 38.056L11 38L16.3334 44L25 43.9806C23.5275 42.7056 22.4794 41.7208 21.6716 40.8307Z" fill="#1F3571"/>
<path fill-rule="evenodd" clip-rule="evenodd" d="M104.858 24.5758L98 22.465H107.334L133 22L127.445 27.9566L112.172 28C110.602 26.5609 104.858 24.5758 104.858 24.5758Z" fill="#1F3571"/>
<path fill-rule="evenodd" clip-rule="evenodd" d="M116.519 44H107C107.973 42.7506 109.202 41.8417 110.022 40.8037C110.632 40.0311 111.558 39.0149 112.378 38H122L116.519 44Z" fill="#1F3571"/>
<path fill-rule="evenodd" clip-rule="evenodd" d="M75.9739 62.6634H72.6963L70.6363 59.7254L71.4722 62.6634H68.7596L67.7153 57.0227L66.6711 62.6634H63.5733L64.64 59.7017L64.1081 60.226L62.2602 62.6634H58.8138L66.1697 49.0259L67.9064 52.7755L69.6223 49.326L75.9739 62.6634ZM68.0338 36.1509L71.6552 37.7L68.0018 45.0629L64.6559 37.9478L68.0338 36.1509ZM72.0755 44.3909H96.7729L103 37.797H75.3546L76.3812 35.7312L79.3852 29.6936L80.2261 28.1085L93.2821 28.1554C93.2821 28.1554 88.4895 26.5614 88.1421 25.9368C87.5523 24.877 87.2607 24.6633 87.1382 22H79.5678L78.153 24.6091L73.1419 34.7051L67.8747 32.4519L63.2343 34.9241L58.384 24.6091L57.2266 22.1462H46.8622C49.1412 26.5599 42.5557 27.8664 42.5557 27.8664L56.3337 27.7867L57.1423 29.5346H38.8169C35.7153 31.0553 25.6883 33.3877 30.1073 35.8902C30.2919 35.995 60.0872 35.8902 60.0872 35.8902L60.9038 37.6539L31.8336 37.7175L38.8526 44.5499H64.0972L64.4154 45.2394L53.2169 66H81.265L71.5119 45.5238L72.0755 44.3909Z" fill="#1F3571"/>
<path fill-rule="evenodd" clip-rule="evenodd" d="M53.2996 68.312C54.4761 68.312 55.9262 68.6717 57.0697 70.4482C58.2645 72.3042 59.5341 74.1715 60.7619 75.9777C62.533 78.5833 64.3644 81.2779 66.0397 84.0341C66.4355 84.6851 67.1364 85.0753 67.9244 85.0528C68.359 85.0454 69.1631 84.9001 69.6628 84.0107C70.5214 82.483 71.5067 81.0437 72.4595 79.6516C72.8637 79.0609 73.2818 78.4501 73.6774 77.8501V77.8503C73.9083 77.5005 74.2022 77.0037 74.543 76.4284C76.105 73.7901 78.2411 70.1816 80.9587 68.9217C83.7091 67.5395 87.2998 68.1028 90.4698 68.5998C91.4395 68.7518 92.3554 68.8956 93.1769 68.9737C94.1818 69.069 95.1764 69.209 96.1383 69.3443C96.6671 69.4186 97.1958 69.4934 97.7255 69.56C99.3549 69.7652 100.56 69.56 101.032 68.9962C101.478 68.4636 101.475 67.3336 101.023 65.8961C100.058 62.8251 99.0018 59.7146 97.9805 56.7063C97.3451 54.8355 96.6881 52.9014 96.0576 50.9891C95.8254 50.2855 95.5412 48.9415 96.2455 47.8469C96.9016 46.8275 97.7155 45.9818 98.4335 45.2353L99.0627 44.5816C101.99 41.5396 105.016 38.3943 108.039 35.3362C108.809 34.557 109.179 33.5951 109.005 32.8261C108.803 31.9334 107.899 31.4351 107.177 31.174C103.307 29.777 99.3876 28.3332 95.5978 26.9368C93.9741 26.3386 93.2603 26.0648 91.6387 25.4697C91.6387 25.4697 90.6147 24.9994 89.9884 24.4062C89.4941 23.9382 89.456 23.4227 89.456 23.4227C89.3793 22.956 89.3056 22.6858 89.2271 22.2296C89.0566 21.2391 88.8801 20.2147 88.7437 19.1938C88.5412 17.6776 88.3464 16.1379 88.1583 14.6494C87.8454 12.1745 87.5218 9.61496 87.1552 7.1151C87.0663 6.50772 86.8811 5.24399 86.4402 4.63683C86.1416 4.2253 85.4423 3.26204 83.042 4.73654C81.2696 5.82511 79.4586 6.90589 77.7074 7.95083C75.1503 9.47697 72.5063 11.055 69.9621 12.6703C67.6182 14.1586 65.7268 13.379 64.3408 12.5328C59.2712 9.44002 54.8075 6.7817 50.695 4.40625C50.11 4.06839 49.48 4.01609 48.9217 4.26002C48.3705 4.50017 47.9718 5.0025 47.8272 5.63815C47.6897 6.24264 47.6081 6.88986 47.5219 7.57537L47.509 7.67797C47.2943 9.37726 47.0824 11.0768 46.8705 12.7763C46.4733 15.9601 46.0626 19.2525 45.6403 22.4913C45.3818 24.475 44.3675 25.6907 42.6263 26.1038C41.918 26.2718 41.1828 26.5792 40.4046 26.9048C40.0235 27.0644 39.6295 27.229 39.2234 27.3835L36.0396 28.5972C33.224 29.6706 30.3125 30.7808 27.4429 31.8618C26.6179 32.1722 26.1298 32.6419 25.9923 33.2568C25.8399 33.9392 26.1142 34.7629 26.6908 35.3558C28.2448 36.9532 29.7912 38.5579 31.3377 40.1624C32.5507 41.421 33.7635 42.6794 34.9799 43.9344C35.2667 44.2304 35.57 44.5204 35.8912 44.8276C36.4849 45.3955 37.0989 45.9831 37.6663 46.6651C37.7354 46.7481 37.8053 46.8302 37.8751 46.9119C38.6827 47.8576 40.0342 49.4402 39.1432 51.9911C37.8564 55.6754 36.6618 59.4782 35.5065 63.1554C35.0682 64.5507 34.63 65.9455 34.1858 67.3385C33.9191 68.1745 33.9485 68.895 34.2663 69.3149C34.6425 69.8119 35.4203 69.8647 35.8495 69.8498C37.5051 69.7972 39.1432 69.6325 40.8777 69.4578C41.5285 69.3924 42.1795 69.3272 42.8302 69.268C46.1573 68.9655 49.4089 68.6675 52.6109 68.3488C52.8253 68.3272 53.0567 68.312 53.2996 68.312ZM67.8872 89C65.7544 89 63.7594 87.889 62.6609 86.0822C61.038 83.4116 59.2351 80.7597 57.4918 78.1946C56.2503 76.3685 54.9666 74.4802 53.7453 72.5824C53.5151 72.225 53.5146 72.225 53.0034 72.2764C49.7853 72.5967 46.5246 72.8953 43.1886 73.1987C42.5503 73.2568 41.912 73.3209 41.2737 73.3852C39.5495 73.5586 37.7663 73.7382 35.975 73.7952C33.9148 73.8588 32.1872 73.1141 31.113 71.6944C29.9949 70.2172 29.7489 68.2446 30.4197 66.1407C30.8623 64.753 31.2989 63.3637 31.7355 61.9738C32.8997 58.2672 34.1038 54.4344 35.4114 50.6908C35.5417 50.3174 35.5553 50.2786 34.8678 49.4727C34.7869 49.3784 34.7058 49.2833 34.6258 49.1872C34.2023 48.678 33.6944 48.1921 33.1569 47.6777C32.8235 47.3586 32.4789 47.0292 32.1402 46.6798C30.9211 45.4218 29.7057 44.1608 28.4902 42.8997C26.9477 41.2994 25.4055 39.6992 23.856 38.1061C22.3528 36.561 21.6933 34.3734 22.135 32.397C22.5683 30.4574 23.9581 28.9557 26.048 28.1685C28.9103 27.0904 31.8179 25.9818 34.6298 24.9095L37.8156 23.6954C38.1617 23.5636 38.5096 23.4181 38.8778 23.2643C39.7569 22.8961 40.6658 22.5162 41.6724 22.2734C41.6867 22.2095 41.7036 22.116 41.721 21.9816C42.142 18.7537 42.5519 15.4669 42.9483 12.2882C43.1605 10.5869 43.3729 8.88517 43.5875 7.18432L43.6004 7.0826C43.6949 6.33278 43.7925 5.55758 43.9728 4.76458C44.3985 2.89213 45.626 1.38981 47.3405 0.642436C49.0545 -0.10494 50.9983 0.0219225 52.6738 0.989639C56.8141 3.38089 61.3043 6.05502 66.4014 9.16471C67.2761 9.69864 67.3626 9.64367 67.8413 9.33942C70.4319 7.69466 73.0997 6.10242 75.68 4.56249C77.4206 3.524 79.2206 2.44967 80.9717 1.37423C84.4282 -0.749046 87.6689 -0.395166 89.6401 2.31992C90.5286 3.54381 90.8504 5.07306 91.066 6.54355C91.4381 9.08214 91.7642 11.6608 92.0793 14.1549C92.267 15.6367 92.4606 17.1693 92.6614 18.6716C92.788 19.6191 92.8451 21.1862 93.3895 21.6186C93.4624 21.6767 93.3296 21.5469 93.3895 21.6186C94.2515 22.6531 95.6995 22.7673 96.9658 23.2338C100.75 24.6277 104.662 26.0693 108.52 27.4621C110.853 28.3043 112.394 29.8998 112.86 31.955C113.335 34.0547 112.585 36.3554 110.851 38.109C107.848 41.1481 104.83 44.2838 101.912 47.3165L101.283 47.9704C100.756 48.5186 100.226 49.0011 100.017 49.7423C100.009 49.7705 100.101 50.6165 100.11 50.6459C100.735 52.5417 101.091 53.576 101.723 55.4386C102.752 58.4682 103.816 61.6006 104.794 64.7143C105.916 68.2847 105.017 70.3904 104.065 71.5275C103.094 72.6875 101.121 73.9679 97.2301 73.476C96.6816 73.407 96.1343 73.33 95.5869 73.2528C94.6262 73.1177 93.7187 72.9902 92.8025 72.9031C91.8613 72.8135 90.8877 72.6608 89.8567 72.4992C87.2664 72.093 84.3302 71.6321 82.7187 72.456L82.6355 72.4961C81.0318 73.2234 79.0238 76.6151 77.9452 78.437C77.5784 79.0566 77.2617 79.5919 76.978 80.0217V80.0219C76.5637 80.6498 76.136 81.2745 75.7224 81.8788C74.7763 83.2614 73.8826 84.5667 73.1095 85.9428C72.0545 87.8197 70.1412 88.9626 67.9917 88.9993C67.957 88.9998 67.922 89 67.8872 89Z" fill="#1850E2"/>
</svg>
