<svg width="65" height="64" viewBox="0 0 65 64" fill="none" xmlns="http://www.w3.org/2000/svg">
<path d="M26.0557 33.1574H16.3706C7.77675 33.1574 0.968656 27.7439 0.869449 20.8411L0.584229 0.392714L10.5049 0.262695L10.7964 20.7111C10.7964 21.9285 12.9975 23.7015 16.3768 23.7015H26.0557C29.9682 23.7015 32.8762 21.6271 32.8762 19.7714V0.617292H42.7969V19.7714C42.8155 27.1529 35.2943 33.1574 26.0557 33.1574Z" fill="#F2F2F2"/>
<rect width="27.3438" height="5.6876" transform="matrix(0.0050924 -0.999987 0.99999 0.0043607 18.0737 62.6064)" fill="#F2F2F2"/>
<rect width="5.62835" height="27.6317" transform="matrix(0.999978 -0.00662179 0.00773285 0.99997 58.1682 35.8076)" fill="#F2F2F2"/>
<path d="M54.0537 30.4063L54.2469 7.64631L62.3417 0.262695L62.4963 30.5259L54.0537 30.4063V30.4063Z" fill="#F2F2F2"/>
<rect width="27.344" height="9.95324" transform="matrix(0.0108058 -0.999942 0.999957 0.00925334 15.8628 29.0195)" fill="#F2F2F2"/>
</svg>
