<svg width="812" height="145" viewBox="0 0 812 145" fill="none" xmlns="http://www.w3.org/2000/svg">
<g opacity="0.3">
<path d="M108.4 116.4V142.4H0V2.39999H105.8V28.4H32.2V58.8H97.2V84H32.2V116.4H108.4Z" fill="#DC3826" fill-opacity="0.423573"/>
<path d="M246.013 142.4L212.213 93.8L179.012 142.4H141.812L193.613 71.2L144.413 2.39999H181.212L213.413 47.8L245.013 2.39999H280.013L231.213 70L283.413 142.4H246.013Z" fill="#DC3826" fill-opacity="0.423573"/>
<path d="M387.508 144.8C373.241 144.8 360.308 141.733 348.708 135.6C337.241 129.333 328.174 120.733 321.508 109.8C314.974 98.7333 311.708 86.2667 311.708 72.4C311.708 58.5333 314.974 46.1333 321.508 35.2C328.174 24.1333 337.241 15.5333 348.708 9.4C360.308 3.13333 373.308 0 387.708 0C399.841 0 410.774 2.13333 420.508 6.4C430.374 10.6667 438.641 16.8 445.308 24.8L424.508 44C415.041 33.0667 403.308 27.6 389.308 27.6C380.641 27.6 372.908 29.5333 366.108 33.4C359.308 37.1333 353.974 42.4 350.108 49.2C346.374 56 344.508 63.7333 344.508 72.4C344.508 81.0667 346.374 88.8 350.108 95.6C353.974 102.4 359.308 107.733 366.108 111.6C372.908 115.333 380.641 117.2 389.308 117.2C403.308 117.2 415.041 111.667 424.508 100.6L445.308 119.8C438.641 127.933 430.374 134.133 420.508 138.4C410.641 142.667 399.641 144.8 387.508 144.8Z" fill="#DC3826" fill-opacity="0.423573"/>
<path d="M557.058 144.8C542.524 144.8 529.391 141.667 517.658 135.4C506.058 129.133 496.924 120.533 490.258 109.6C483.724 98.5333 480.458 86.1333 480.458 72.4C480.458 58.6667 483.724 46.3333 490.258 35.4C496.924 24.3333 506.058 15.6667 517.658 9.4C529.391 3.13333 542.524 0 557.058 0C571.591 0 584.658 3.13333 596.258 9.4C607.858 15.6667 616.991 24.3333 623.658 35.4C630.325 46.3333 633.658 58.6667 633.658 72.4C633.658 86.1333 630.325 98.5333 623.658 109.6C616.991 120.533 607.858 129.133 596.258 135.4C584.658 141.667 571.591 144.8 557.058 144.8ZM557.058 117.2C565.324 117.2 572.791 115.333 579.458 111.6C586.124 107.733 591.324 102.4 595.058 95.6C598.924 88.8 600.858 81.0667 600.858 72.4C600.858 63.7333 598.924 56 595.058 49.2C591.324 42.4 586.124 37.1333 579.458 33.4C572.791 29.5333 565.324 27.6 557.058 27.6C548.791 27.6 541.325 29.5333 534.658 33.4C527.991 37.1333 522.724 42.4 518.858 49.2C515.124 56 513.258 63.7333 513.258 72.4C513.258 81.0667 515.124 88.8 518.858 95.6C522.724 102.4 527.991 107.733 534.658 111.6C541.325 115.333 548.791 117.2 557.058 117.2Z" fill="#DC3826" fill-opacity="0.423573"/>
<path d="M811.408 2.39999V142.4H784.808L715.008 57.4V142.4H683.008V2.39999H709.808L779.408 87.4V2.39999H811.408Z" fill="#DC3826" fill-opacity="0.423573"/>
</g>
</svg>
