<svg width="94" height="43" viewBox="0 0 94 43" fill="none" xmlns="http://www.w3.org/2000/svg">
<path d="M3.017 2.376V5.183H6.559V6.632H3.017V9.495H7.511V11H1.127V0.877999H7.511V2.376H3.017ZM15.5521 11H13.8861C13.7601 11 13.6574 10.9673 13.5781 10.902C13.5034 10.8367 13.4404 10.762 13.3891 10.678L11.8701 8.179C11.8467 8.25833 11.8187 8.333 11.7861 8.403C11.7581 8.473 11.7254 8.53833 11.6881 8.599L10.3441 10.678C10.2927 10.7573 10.2297 10.832 10.1551 10.902C10.0804 10.9673 9.98707 11 9.87507 11H8.32807L10.7921 7.297L8.42607 3.818H10.0921C10.2181 3.818 10.3114 3.83667 10.3721 3.874C10.4327 3.90667 10.4864 3.96267 10.5331 4.042L12.0381 6.436C12.0894 6.27733 12.1617 6.121 12.2551 5.967L13.4661 4.077C13.5687 3.90433 13.7017 3.818 13.8651 3.818H15.4541L13.0951 7.22L15.5521 11ZM23.7068 8.613C23.8094 8.613 23.9004 8.65267 23.9798 8.732L24.7218 9.537C24.3111 10.0457 23.8048 10.4353 23.2028 10.706C22.6054 10.9767 21.8868 11.112 21.0468 11.112C20.2954 11.112 19.6188 10.9837 19.0168 10.727C18.4194 10.4703 17.9084 10.1133 17.4838 9.656C17.0591 9.19867 16.7324 8.65267 16.5038 8.018C16.2798 7.38333 16.1678 6.69033 16.1678 5.939C16.1678 5.17833 16.2891 4.483 16.5318 3.853C16.7744 3.21833 17.1151 2.67233 17.5538 2.215C17.9971 1.75767 18.5244 1.403 19.1358 1.151C19.7471 0.894333 20.4238 0.766 21.1658 0.766C21.9031 0.766 22.5564 0.887333 23.1258 1.13C23.6998 1.37267 24.1874 1.69 24.5888 2.082L23.9588 2.957C23.9214 3.013 23.8724 3.062 23.8118 3.104C23.7558 3.146 23.6764 3.167 23.5738 3.167C23.5038 3.167 23.4314 3.14833 23.3568 3.111C23.2821 3.069 23.2004 3.02 23.1118 2.964C23.0231 2.90333 22.9204 2.838 22.8038 2.768C22.6871 2.698 22.5518 2.635 22.3978 2.579C22.2438 2.51833 22.0641 2.46933 21.8588 2.432C21.6581 2.39 21.4248 2.369 21.1588 2.369C20.7061 2.369 20.2908 2.45067 19.9128 2.614C19.5394 2.77267 19.2174 3.006 18.9468 3.314C18.6761 3.61733 18.4661 3.99067 18.3168 4.434C18.1674 4.87267 18.0928 5.37433 18.0928 5.939C18.0928 6.50833 18.1721 7.01467 18.3308 7.458C18.4941 7.90133 18.7134 8.27467 18.9888 8.578C19.2641 8.88133 19.5884 9.11467 19.9618 9.278C20.3351 9.43667 20.7364 9.516 21.1658 9.516C21.4224 9.516 21.6534 9.502 21.8588 9.474C22.0688 9.446 22.2601 9.40167 22.4328 9.341C22.6101 9.28033 22.7758 9.20333 22.9298 9.11C23.0884 9.012 23.2448 8.893 23.3988 8.753C23.4454 8.711 23.4944 8.67833 23.5458 8.655C23.5971 8.627 23.6508 8.613 23.7068 8.613ZM28.9996 3.706C29.5316 3.706 30.0146 3.79233 30.4486 3.965C30.8872 4.13767 31.2606 4.38267 31.5686 4.7C31.8812 5.01733 32.1216 5.40467 32.2896 5.862C32.4576 6.31933 32.5416 6.83033 32.5416 7.395C32.5416 7.96433 32.4576 8.47767 32.2896 8.935C32.1216 9.39233 31.8812 9.782 31.5686 10.104C31.2606 10.426 30.8872 10.6733 30.4486 10.846C30.0146 11.0187 29.5316 11.105 28.9996 11.105C28.4629 11.105 27.9752 11.0187 27.5366 10.846C27.0979 10.6733 26.7222 10.426 26.4096 10.104C26.1016 9.782 25.8612 9.39233 25.6886 8.935C25.5206 8.47767 25.4366 7.96433 25.4366 7.395C25.4366 6.83033 25.5206 6.31933 25.6886 5.862C25.8612 5.40467 26.1016 5.01733 26.4096 4.7C26.7222 4.38267 27.0979 4.13767 27.5366 3.965C27.9752 3.79233 28.4629 3.706 28.9996 3.706ZM28.9996 9.775C29.5969 9.775 30.0379 9.57433 30.3226 9.173C30.6119 8.77167 30.7566 8.18367 30.7566 7.409C30.7566 6.63433 30.6119 6.044 30.3226 5.638C30.0379 5.232 29.5969 5.029 28.9996 5.029C28.3929 5.029 27.9426 5.23433 27.6486 5.645C27.3592 6.051 27.2146 6.639 27.2146 7.409C27.2146 8.179 27.3592 8.767 27.6486 9.173C27.9426 9.57433 28.3929 9.775 28.9996 9.775ZM35.711 4.7C35.8556 4.55533 36.0073 4.42233 36.166 4.301C36.3293 4.175 36.4996 4.07 36.677 3.986C36.859 3.89733 37.0526 3.82967 37.258 3.783C37.4633 3.73167 37.6873 3.706 37.93 3.706C38.322 3.706 38.6696 3.77367 38.973 3.909C39.2763 4.03967 39.5283 4.22633 39.729 4.469C39.9343 4.707 40.0883 4.994 40.191 5.33C40.2983 5.66133 40.352 6.02767 40.352 6.429V11H38.623V6.429C38.623 5.99033 38.5226 5.652 38.322 5.414C38.1213 5.17133 37.8156 5.05 37.405 5.05C37.1063 5.05 36.8263 5.11767 36.565 5.253C36.3036 5.38833 36.0563 5.57267 35.823 5.806V11H34.094V3.818H35.151C35.375 3.818 35.522 3.923 35.592 4.133L35.711 4.7ZM51.5303 2.719C51.4743 2.817 51.4136 2.88933 51.3483 2.936C51.2876 2.978 51.2106 2.999 51.1173 2.999C51.0193 2.999 50.9119 2.964 50.7953 2.894C50.6833 2.81933 50.5479 2.73767 50.3893 2.649C50.2306 2.56033 50.0439 2.481 49.8293 2.411C49.6193 2.33633 49.3696 2.299 49.0803 2.299C48.8189 2.299 48.5903 2.33167 48.3943 2.397C48.1983 2.45767 48.0326 2.544 47.8973 2.656C47.7666 2.768 47.6686 2.90333 47.6033 3.062C47.5379 3.216 47.5053 3.38633 47.5053 3.573C47.5053 3.811 47.5706 4.00933 47.7013 4.168C47.8366 4.32667 48.0139 4.462 48.2333 4.574C48.4526 4.686 48.7023 4.78633 48.9823 4.875C49.2623 4.96367 49.5493 5.05933 49.8433 5.162C50.1373 5.26 50.4243 5.37667 50.7043 5.512C50.9843 5.64267 51.2339 5.81067 51.4533 6.016C51.6726 6.21667 51.8476 6.464 51.9783 6.758C52.1136 7.052 52.1813 7.409 52.1813 7.829C52.1813 8.28633 52.1019 8.71567 51.9433 9.117C51.7893 9.51367 51.5606 9.86133 51.2573 10.16C50.9586 10.454 50.5923 10.6873 50.1583 10.86C49.7243 11.028 49.2273 11.112 48.6673 11.112C48.3453 11.112 48.0279 11.0793 47.7153 11.014C47.4026 10.9533 47.1016 10.8647 46.8123 10.748C46.5276 10.6313 46.2593 10.4913 46.0073 10.328C45.7553 10.1647 45.5313 9.98267 45.3353 9.782L45.8883 8.879C45.9349 8.81367 45.9956 8.76 46.0703 8.718C46.1449 8.67133 46.2243 8.648 46.3083 8.648C46.4249 8.648 46.5509 8.697 46.6863 8.795C46.8216 8.88833 46.9826 8.99333 47.1693 9.11C47.3559 9.22667 47.5729 9.334 47.8203 9.432C48.0723 9.52533 48.3733 9.572 48.7233 9.572C49.2599 9.572 49.6753 9.446 49.9693 9.194C50.2633 8.93733 50.4103 8.571 50.4103 8.095C50.4103 7.829 50.3426 7.612 50.2073 7.444C50.0766 7.276 49.9016 7.136 49.6823 7.024C49.4629 6.90733 49.2133 6.80933 48.9333 6.73C48.6533 6.65067 48.3686 6.56433 48.0793 6.471C47.7899 6.37767 47.5053 6.26567 47.2253 6.135C46.9453 6.00433 46.6956 5.834 46.4763 5.624C46.2569 5.414 46.0796 5.15267 45.9443 4.84C45.8136 4.52267 45.7483 4.133 45.7483 3.671C45.7483 3.30233 45.8206 2.943 45.9653 2.593C46.1146 2.243 46.3293 1.93267 46.6093 1.662C46.8893 1.39133 47.2346 1.17433 47.6453 1.011C48.0559 0.847667 48.5273 0.766 49.0593 0.766C49.6566 0.766 50.2073 0.859333 50.7113 1.046C51.2153 1.23267 51.6446 1.494 51.9993 1.83L51.5303 2.719ZM56.9349 3.706C57.4669 3.706 57.9499 3.79233 58.3839 3.965C58.8225 4.13767 59.1959 4.38267 59.5039 4.7C59.8165 5.01733 60.0569 5.40467 60.2249 5.862C60.3929 6.31933 60.4769 6.83033 60.4769 7.395C60.4769 7.96433 60.3929 8.47767 60.2249 8.935C60.0569 9.39233 59.8165 9.782 59.5039 10.104C59.1959 10.426 58.8225 10.6733 58.3839 10.846C57.9499 11.0187 57.4669 11.105 56.9349 11.105C56.3982 11.105 55.9105 11.0187 55.4719 10.846C55.0332 10.6733 54.6575 10.426 54.3449 10.104C54.0369 9.782 53.7965 9.39233 53.6239 8.935C53.4559 8.47767 53.3719 7.96433 53.3719 7.395C53.3719 6.83033 53.4559 6.31933 53.6239 5.862C53.7965 5.40467 54.0369 5.01733 54.3449 4.7C54.6575 4.38267 55.0332 4.13767 55.4719 3.965C55.9105 3.79233 56.3982 3.706 56.9349 3.706ZM56.9349 9.775C57.5322 9.775 57.9732 9.57433 58.2579 9.173C58.5472 8.77167 58.6919 8.18367 58.6919 7.409C58.6919 6.63433 58.5472 6.044 58.2579 5.638C57.9732 5.232 57.5322 5.029 56.9349 5.029C56.3282 5.029 55.8779 5.23433 55.5839 5.645C55.2945 6.051 55.1499 6.639 55.1499 7.409C55.1499 8.179 55.2945 8.767 55.5839 9.173C55.8779 9.57433 56.3282 9.775 56.9349 9.775ZM67.1743 5.337C67.1229 5.40233 67.0716 5.45367 67.0203 5.491C66.9736 5.52833 66.9036 5.547 66.8103 5.547C66.7216 5.547 66.6353 5.52133 66.5513 5.47C66.4673 5.414 66.3669 5.35333 66.2503 5.288C66.1336 5.218 65.9936 5.15733 65.8303 5.106C65.6716 5.05 65.4733 5.022 65.2353 5.022C64.9319 5.022 64.6659 5.078 64.4373 5.19C64.2086 5.29733 64.0173 5.45367 63.8633 5.659C63.7139 5.86433 63.6019 6.114 63.5273 6.408C63.4526 6.69733 63.4153 7.02633 63.4153 7.395C63.4153 7.77767 63.4549 8.11833 63.5343 8.417C63.6183 8.71567 63.7373 8.96767 63.8913 9.173C64.0453 9.37367 64.2319 9.52767 64.4513 9.635C64.6706 9.73767 64.9179 9.789 65.1933 9.789C65.4686 9.789 65.6903 9.75633 65.8583 9.691C66.0309 9.621 66.1756 9.54633 66.2923 9.467C66.4089 9.383 66.5093 9.30833 66.5933 9.243C66.6819 9.173 66.7799 9.138 66.8873 9.138C67.0273 9.138 67.1323 9.19167 67.2023 9.299L67.6993 9.929C67.5079 10.153 67.3003 10.342 67.0763 10.496C66.8523 10.6453 66.6189 10.7667 66.3763 10.86C66.1383 10.9487 65.8909 11.0117 65.6343 11.049C65.3823 11.0863 65.1303 11.105 64.8783 11.105C64.4349 11.105 64.0173 11.0233 63.6253 10.86C63.2333 10.692 62.8903 10.4493 62.5963 10.132C62.3023 9.81467 62.0689 9.42733 61.8963 8.97C61.7283 8.508 61.6443 7.983 61.6443 7.395C61.6443 6.86767 61.7189 6.38 61.8683 5.932C62.0223 5.47933 62.2463 5.08967 62.5403 4.763C62.8343 4.43167 63.1983 4.17267 63.6323 3.986C64.0663 3.79933 64.5656 3.706 65.1303 3.706C65.6669 3.706 66.1359 3.79233 66.5373 3.965C66.9433 4.13767 67.3073 4.385 67.6293 4.707L67.1743 5.337ZM70.8085 3.818V11H69.0725V3.818H70.8085ZM71.0465 1.725C71.0465 1.87433 71.0162 2.01433 70.9555 2.145C70.8948 2.27567 70.8132 2.39 70.7105 2.488C70.6125 2.586 70.4958 2.66533 70.3605 2.726C70.2252 2.782 70.0805 2.81 69.9265 2.81C69.7772 2.81 69.6348 2.782 69.4995 2.726C69.3688 2.66533 69.2545 2.586 69.1565 2.488C69.0585 2.39 68.9792 2.27567 68.9185 2.145C68.8625 2.01433 68.8345 1.87433 68.8345 1.725C68.8345 1.571 68.8625 1.42633 68.9185 1.291C68.9792 1.15567 69.0585 1.039 69.1565 0.941C69.2545 0.843 69.3688 0.766 69.4995 0.71C69.6348 0.649333 69.7772 0.619 69.9265 0.619C70.0805 0.619 70.2252 0.649333 70.3605 0.71C70.4958 0.766 70.6125 0.843 70.7105 0.941C70.8132 1.039 70.8948 1.15567 70.9555 1.291C71.0162 1.42633 71.0465 1.571 71.0465 1.725ZM76.5985 7.934C76.0992 7.95733 75.6792 8.00167 75.3385 8.067C74.9979 8.12767 74.7249 8.207 74.5195 8.305C74.3142 8.403 74.1672 8.51733 74.0785 8.648C73.9899 8.77867 73.9455 8.921 73.9455 9.075C73.9455 9.37833 74.0342 9.59533 74.2115 9.726C74.3935 9.85667 74.6292 9.922 74.9185 9.922C75.2732 9.922 75.5789 9.859 75.8355 9.733C76.0969 9.60233 76.3512 9.40633 76.5985 9.145V7.934ZM72.6365 4.819C73.4625 4.063 74.4565 3.685 75.6185 3.685C76.0385 3.685 76.4142 3.755 76.7455 3.895C77.0769 4.03033 77.3569 4.22167 77.5855 4.469C77.8142 4.71167 77.9869 5.00333 78.1035 5.344C78.2249 5.68467 78.2855 6.058 78.2855 6.464V11H77.5015C77.3382 11 77.2122 10.9767 77.1235 10.93C77.0349 10.8787 76.9649 10.7783 76.9135 10.629L76.7595 10.111C76.5775 10.2743 76.4002 10.419 76.2275 10.545C76.0549 10.6663 75.8752 10.769 75.6885 10.853C75.5019 10.937 75.3012 11 75.0865 11.042C74.8765 11.0887 74.6432 11.112 74.3865 11.112C74.0832 11.112 73.8032 11.0723 73.5465 10.993C73.2899 10.909 73.0682 10.7853 72.8815 10.622C72.6949 10.4587 72.5502 10.2557 72.4475 10.013C72.3449 9.77033 72.2935 9.488 72.2935 9.166C72.2935 8.984 72.3239 8.80433 72.3845 8.627C72.4452 8.445 72.5432 8.27233 72.6785 8.109C72.8185 7.94567 72.9982 7.79167 73.2175 7.647C73.4369 7.50233 73.7052 7.37633 74.0225 7.269C74.3445 7.16167 74.7179 7.07533 75.1425 7.01C75.5672 6.94 76.0525 6.898 76.5985 6.884V6.464C76.5985 5.98333 76.4959 5.62867 76.2905 5.4C76.0852 5.16667 75.7889 5.05 75.4015 5.05C75.1215 5.05 74.8882 5.08267 74.7015 5.148C74.5195 5.21333 74.3585 5.288 74.2185 5.372C74.0785 5.45133 73.9502 5.52367 73.8335 5.589C73.7215 5.65433 73.5955 5.687 73.4555 5.687C73.3342 5.687 73.2315 5.65667 73.1475 5.596C73.0635 5.53067 72.9959 5.456 72.9445 5.372L72.6365 4.819ZM81.8972 0.598V11H80.1682V0.598H81.8972ZM17.1562 30.9062C16.9688 30.1562 16.375 29.5625 15.6562 29.375C14.3125 29 9 29 9 29C9 29 3.65625 29 2.3125 29.375C1.59375 29.5625 1 30.1562 0.8125 30.9062C0.4375 32.2188 0.4375 35.0312 0.4375 35.0312C0.4375 35.0312 0.4375 37.8125 0.8125 39.1562C1 39.9062 1.59375 40.4688 2.3125 40.6562C3.65625 41 9 41 9 41C9 41 14.3125 41 15.6562 40.6562C16.375 40.4688 16.9688 39.9062 17.1562 39.1562C17.5312 37.8125 17.5312 35.0312 17.5312 35.0312C17.5312 35.0312 17.5312 32.2188 17.1562 30.9062ZM7.25 37.5625V32.5L11.6875 35.0312L7.25 37.5625ZM92.9688 36L93.4062 33.125H90.625V31.25C90.625 30.4375 91 29.6875 92.25 29.6875H93.5312V27.2188C93.5312 27.2188 92.375 27 91.2812 27C89 27 87.5 28.4062 87.5 30.9062V33.125H84.9375V36H87.5V43H90.625V36H92.9688Z" fill="white"/>
</svg>
