<svg width="556" height="145" viewBox="0 0 556 145" fill="none" xmlns="http://www.w3.org/2000/svg">
<g opacity="0.3">
<path d="M-162.766 116.4V142.4H-271.166V2.39999H-165.366V28.4H-238.966V58.8H-173.966V84H-238.966V116.4H-162.766Z" fill="#1F3571"/>
<path d="M-25.1531 142.4L-58.9531 93.8L-92.1532 142.4H-129.353L-77.5531 71.2L-126.753 2.39999H-89.9532L-57.7531 47.8L-26.1531 2.39999H8.84686L-39.9531 70L12.2469 142.4H-25.1531Z" fill="#1F3571"/>
<path d="M116.342 144.8C102.076 144.8 89.1422 141.733 77.5422 135.6C66.0755 129.333 57.0088 120.733 50.3422 109.8C43.8088 98.7333 40.5422 86.2667 40.5422 72.4C40.5422 58.5333 43.8088 46.1333 50.3422 35.2C57.0088 24.1333 66.0755 15.5333 77.5422 9.4C89.1422 3.13333 102.142 0 116.542 0C128.676 0 139.609 2.13333 149.342 6.4C159.209 10.6667 167.475 16.8 174.142 24.8L153.342 44C143.875 33.0667 132.142 27.6 118.142 27.6C109.475 27.6 101.742 29.5333 94.9422 33.4C88.1422 37.1333 82.8088 42.4 78.9422 49.2C75.2088 56 73.3422 63.7333 73.3422 72.4C73.3422 81.0667 75.2088 88.8 78.9422 95.6C82.8088 102.4 88.1422 107.733 94.9422 111.6C101.742 115.333 109.475 117.2 118.142 117.2C132.142 117.2 143.875 111.667 153.342 100.6L174.142 119.8C167.475 127.933 159.209 134.133 149.342 138.4C139.475 142.667 128.475 144.8 116.342 144.8Z" fill="#1F3571"/>
<path d="M285.892 144.8C271.359 144.8 258.226 141.667 246.492 135.4C234.892 129.133 225.759 120.533 219.092 109.6C212.559 98.5333 209.292 86.1333 209.292 72.4C209.292 58.6667 212.559 46.3333 219.092 35.4C225.759 24.3333 234.892 15.6667 246.492 9.4C258.226 3.13333 271.359 0 285.892 0C300.425 0 313.492 3.13333 325.092 9.4C336.692 15.6667 345.826 24.3333 352.492 35.4C359.159 46.3333 362.492 58.6667 362.492 72.4C362.492 86.1333 359.159 98.5333 352.492 109.6C345.826 120.533 336.692 129.133 325.092 135.4C313.492 141.667 300.425 144.8 285.892 144.8ZM285.892 117.2C294.159 117.2 301.625 115.333 308.292 111.6C314.959 107.733 320.159 102.4 323.892 95.6C327.759 88.8 329.692 81.0667 329.692 72.4C329.692 63.7333 327.759 56 323.892 49.2C320.159 42.4 314.959 37.1333 308.292 33.4C301.625 29.5333 294.159 27.6 285.892 27.6C277.625 27.6 270.159 29.5333 263.492 33.4C256.826 37.1333 251.559 42.4 247.692 49.2C243.959 56 242.092 63.7333 242.092 72.4C242.092 81.0667 243.959 88.8 247.692 95.6C251.559 102.4 256.826 107.733 263.492 111.6C270.159 115.333 277.625 117.2 285.892 117.2Z" fill="#1F3571"/>
<path d="M540.242 2.39999V142.4H513.642L443.842 57.4V142.4H411.842V2.39999H438.642L508.242 87.4V2.39999H540.242Z" fill="#1F3571"/>
</g>
<g opacity="0.3">
<path d="M-147.766 116.4V142.4H-256.166V2.39999H-150.366V28.4H-223.966V58.8H-158.966V84H-223.966V116.4H-147.766Z" fill="#DC3826" fill-opacity="0.423573"/>
<path d="M-10.1531 142.4L-43.9531 93.8L-77.1532 142.4H-114.353L-62.5531 71.2L-111.753 2.39999H-74.9532L-42.7531 47.8L-11.1531 2.39999H23.8469L-24.9531 70L27.2469 142.4H-10.1531Z" fill="#DC3826" fill-opacity="0.423573"/>
<path d="M131.342 144.8C117.076 144.8 104.142 141.733 92.5422 135.6C81.0755 129.333 72.0088 120.733 65.3422 109.8C58.8088 98.7333 55.5422 86.2667 55.5422 72.4C55.5422 58.5333 58.8088 46.1333 65.3422 35.2C72.0088 24.1333 81.0755 15.5333 92.5422 9.4C104.142 3.13333 117.142 0 131.542 0C143.676 0 154.609 2.13333 164.342 6.4C174.209 10.6667 182.475 16.8 189.142 24.8L168.342 44C158.875 33.0667 147.142 27.6 133.142 27.6C124.475 27.6 116.742 29.5333 109.942 33.4C103.142 37.1333 97.8088 42.4 93.9422 49.2C90.2088 56 88.3422 63.7333 88.3422 72.4C88.3422 81.0667 90.2088 88.8 93.9422 95.6C97.8088 102.4 103.142 107.733 109.942 111.6C116.742 115.333 124.475 117.2 133.142 117.2C147.142 117.2 158.875 111.667 168.342 100.6L189.142 119.8C182.475 127.933 174.209 134.133 164.342 138.4C154.475 142.667 143.475 144.8 131.342 144.8Z" fill="#DC3826" fill-opacity="0.423573"/>
<path d="M300.892 144.8C286.359 144.8 273.226 141.667 261.492 135.4C249.892 129.133 240.759 120.533 234.092 109.6C227.559 98.5333 224.292 86.1333 224.292 72.4C224.292 58.6667 227.559 46.3333 234.092 35.4C240.759 24.3333 249.892 15.6667 261.492 9.4C273.226 3.13333 286.359 0 300.892 0C315.425 0 328.492 3.13333 340.092 9.4C351.692 15.6667 360.826 24.3333 367.492 35.4C374.159 46.3333 377.492 58.6667 377.492 72.4C377.492 86.1333 374.159 98.5333 367.492 109.6C360.826 120.533 351.692 129.133 340.092 135.4C328.492 141.667 315.425 144.8 300.892 144.8ZM300.892 117.2C309.159 117.2 316.625 115.333 323.292 111.6C329.959 107.733 335.159 102.4 338.892 95.6C342.759 88.8 344.692 81.0667 344.692 72.4C344.692 63.7333 342.759 56 338.892 49.2C335.159 42.4 329.959 37.1333 323.292 33.4C316.625 29.5333 309.159 27.6 300.892 27.6C292.625 27.6 285.159 29.5333 278.492 33.4C271.826 37.1333 266.559 42.4 262.692 49.2C258.959 56 257.092 63.7333 257.092 72.4C257.092 81.0667 258.959 88.8 262.692 95.6C266.559 102.4 271.826 107.733 278.492 111.6C285.159 115.333 292.625 117.2 300.892 117.2Z" fill="#DC3826" fill-opacity="0.423573"/>
<path d="M555.242 2.39999V142.4H528.642L458.842 57.4V142.4H426.842V2.39999H453.642L523.242 87.4V2.39999H555.242Z" fill="#DC3826" fill-opacity="0.423573"/>
</g>
</svg>
