<svg width="55" height="66" viewBox="0 0 55 66" fill="none" xmlns="http://www.w3.org/2000/svg">
<path fill-rule="evenodd" clip-rule="evenodd" d="M40.4453 65.8539H40.556H40.5744C44.2805 65.8539 47.8348 64.4743 50.4548 62.0186C53.0748 59.563 54.5459 56.2326 54.5443 52.7606V20.082H0.98291V52.5475C0.999186 59.739 7.17857 65.5846 14.8544 65.6696L40.4453 65.8539ZM11.4357 52.5475V29.8747H44.0915V52.7606C44.0881 54.58 42.5165 56.055 40.5744 56.0613H40.5437L14.9528 55.8712C13.0068 55.8523 11.439 54.3706 11.4357 52.5475Z" fill="#F2F2F2"/>
<path d="M17.7135 24.9782H12.1797V0.698242H42.6404V17.0807H37.1066V5.88257H17.7135V24.9782V24.9782Z" fill="#F2F2F2"/>
</svg>
