<svg width="150" height="40" viewBox="0 0 150 40" fill="none" xmlns="http://www.w3.org/2000/svg">
<path fill-rule="evenodd" clip-rule="evenodd" d="M13.1589 10.9961L15.2324 10.2587L16.7506 9.57898H0L2.44085 12.3009L10.2558 12.3154C11.0039 11.8504 12.3239 11.4269 13.1589 10.9961" fill="#F2F2F2"/>
<path fill-rule="evenodd" clip-rule="evenodd" d="M9.10304 14.467C9.16626 13.7581 9.6626 13.2307 9.6626 13.2307L2.77368 13.2451L5.21443 15.967L9.1332 15.8814C9.06549 15.4818 9.05611 14.9932 9.10304 14.467" fill="#F2F2F2"/>
<path fill-rule="evenodd" clip-rule="evenodd" d="M10.6532 18.1955C10.3418 17.8554 9.92844 17.3337 9.63393 16.9368L5.76929 16.9114L8.21013 19.6332L12.1764 19.6244C11.5025 19.046 11.0229 18.5993 10.6532 18.1955" fill="#F2F2F2"/>
<path fill-rule="evenodd" clip-rule="evenodd" d="M47.689 11.0438L44.6377 10.018H48.791L60.2111 9.79199L57.7396 12.6868L50.9436 12.7079C50.2451 12.0085 47.689 11.0438 47.689 11.0438" fill="#F2F2F2"/>
<path fill-rule="evenodd" clip-rule="evenodd" d="M52.4334 19.846H48.1829C48.6174 19.2792 49.1663 18.8669 49.5322 18.396C49.8045 18.0455 50.2183 17.5845 50.5843 17.1241H54.8808L52.4334 19.846Z" fill="#F2F2F2"/>
<path fill-rule="evenodd" clip-rule="evenodd" d="M34.1339 28.1405H32.6588L31.7316 26.814L32.1078 28.1405H30.887L30.417 25.5937L29.947 28.1405H28.5528L29.0328 26.8033L28.7934 27.04L27.9618 28.1405H26.4106L29.7213 21.9831L30.503 23.6761L31.2752 22.1186L34.1339 28.1405ZM30.5603 16.17L32.1902 16.8694L30.5459 20.1938L29.04 16.9813L30.5603 16.17ZM32.3794 19.8904H43.495L46.2977 16.9132H33.8552L34.3173 15.9805L35.6693 13.2545L36.0478 12.5388L41.9239 12.56C41.9239 12.56 39.7669 11.8403 39.6105 11.5583C39.3451 11.0798 39.2138 10.9833 39.1587 9.78076H35.7515L35.1147 10.9588L32.8593 15.5172L30.4887 14.4999L28.4002 15.6161L26.2172 10.9588L25.6963 9.84676H21.0315C22.0572 11.8396 19.0933 12.4295 19.0933 12.4295L25.2944 12.3935L25.6583 13.1827H17.4105C16.0146 13.8693 11.5017 14.9224 13.4905 16.0523C13.5736 16.0996 26.9838 16.0523 26.9838 16.0523L27.3513 16.8486L14.2675 16.8773L17.4266 19.9622H28.7885L28.9318 20.2735L23.8916 29.647H36.5153L32.1257 20.4019L32.3794 19.8904Z" fill="#F2F2F2"/>
<path fill-rule="evenodd" clip-rule="evenodd" d="M31.744 26.7773L31.7693 26.8688L31.7065 26.7773H31.744Z" fill="#848484"/>
<path fill-rule="evenodd" clip-rule="evenodd" d="M23.9376 30.7048C24.4648 30.7048 25.1146 30.8664 25.627 31.6646C26.1624 32.4985 26.7313 33.3375 27.2815 34.149C28.0751 35.3197 28.8958 36.5304 29.6465 37.7688C29.8239 38.0613 30.138 38.2366 30.4911 38.2265C30.6859 38.2232 31.0462 38.1579 31.2701 37.7583C31.6549 37.0719 32.0964 36.4252 32.5233 35.7997C32.7045 35.5343 32.8918 35.2599 33.0691 34.9903V34.9904C33.1725 34.8332 33.3043 34.61 33.457 34.3515C34.1569 33.1661 35.1142 31.5448 36.3319 30.9787C37.5644 30.3577 39.1734 30.6108 40.5939 30.8341C41.0285 30.9024 41.4389 30.967 41.807 31.0021C42.2573 31.0449 42.703 31.1078 43.1341 31.1686C43.371 31.202 43.6079 31.2356 43.8453 31.2655C44.5754 31.3577 45.1155 31.2655 45.327 31.0122C45.5268 30.7729 45.5254 30.2652 45.3229 29.6193C44.8907 28.2395 44.4173 26.8419 43.9596 25.4903C43.6748 24.6497 43.3804 23.7807 43.0979 22.9215C42.9938 22.6054 42.8665 22.0015 43.1821 21.5097C43.4761 21.0517 43.8408 20.6717 44.1626 20.3363L44.4445 20.0426C45.7561 18.6758 47.1124 17.2626 48.4668 15.8886C48.8119 15.5385 48.9778 15.1063 48.8998 14.7608C48.8091 14.3597 48.4042 14.1358 48.0805 14.0185C46.3463 13.3908 44.5901 12.7421 42.8919 12.1147C42.1643 11.8459 41.8444 11.7229 41.1178 11.4555C41.1178 11.4555 40.6589 11.2442 40.3782 10.9777C40.1567 10.7674 40.1397 10.5358 40.1397 10.5358C40.1053 10.3261 40.0722 10.2047 40.0371 9.99969C39.9607 9.55469 39.8816 9.09439 39.8205 8.63569C39.7297 7.95449 39.6424 7.26269 39.5581 6.59389C39.4179 5.48189 39.2729 4.33189 39.1086 3.20869C39.0688 2.93579 38.9858 2.36799 38.7883 2.09519C38.6544 1.91029 38.3411 1.47749 37.2655 2.13999C36.4712 2.62909 35.6597 3.11469 34.875 3.58419C33.7291 4.26989 32.5443 4.97889 31.4042 5.70469C30.3539 6.37339 29.5063 6.02309 28.8853 5.64289C26.6135 4.25329 24.6133 3.05889 22.7704 1.99159C22.5083 1.83979 22.2259 1.81629 21.9758 1.92589C21.7288 2.03379 21.5501 2.25949 21.4853 2.54509C21.4237 2.81669 21.3872 3.10749 21.3485 3.41549L21.3427 3.46159C21.2465 4.22509 21.1516 4.98869 21.0566 5.75229C20.8786 7.18279 20.6946 8.66209 20.5053 10.1173C20.3895 11.0086 19.935 11.5548 19.1547 11.7404C18.8374 11.8159 18.5079 11.954 18.1592 12.1003C17.9884 12.172 17.8118 12.246 17.6299 12.3154L16.2032 12.8607C14.9415 13.343 13.6368 13.8418 12.3509 14.3275C11.9812 14.467 11.7625 14.678 11.7009 14.9543C11.6326 15.2609 11.7555 15.631 12.0139 15.8974C12.7102 16.6151 13.4032 17.3361 14.0962 18.057C14.6398 18.6225 15.1832 19.1879 15.7283 19.7518C15.8568 19.8848 15.9928 20.0151 16.1367 20.1531C16.4027 20.4083 16.6778 20.6723 16.9321 20.9787C16.9631 21.016 16.9944 21.0529 17.0257 21.0896C17.3876 21.5145 17.9932 22.2256 17.5939 23.3717C17.0173 25.0271 16.482 26.7357 15.9643 28.3879C15.7679 29.0148 15.5715 29.6415 15.3725 30.2674C15.2529 30.643 15.2661 30.9667 15.4085 31.1554C15.5771 31.3787 15.9256 31.4024 16.118 31.3957C16.8599 31.3721 17.5939 31.2981 18.3712 31.2196C18.6628 31.1902 18.9545 31.1609 19.2461 31.1343C20.737 30.9984 22.1941 30.8645 23.629 30.7213C23.725 30.7116 23.8287 30.7048 23.9376 30.7048ZM30.4744 40C29.5187 40 28.6247 39.5008 28.1325 38.689C27.4052 37.4891 26.5973 36.2976 25.8162 35.1451C25.2598 34.3246 24.6846 33.4762 24.1373 32.6235C24.0341 32.4629 24.0339 32.4629 23.8048 32.486C22.3628 32.6299 20.9016 32.7641 19.4067 32.9004C19.1207 32.9265 18.8347 32.9553 18.5486 32.9842C17.776 33.0621 16.9769 33.1428 16.1742 33.1684C15.251 33.197 14.4769 32.8624 13.9955 32.2245C13.4945 31.5608 13.3842 30.6745 13.6848 29.7292C13.8832 29.1057 14.0788 28.4815 14.2744 27.857C14.7961 26.1916 15.3357 24.4695 15.9216 22.7875C15.9801 22.6197 15.9862 22.6023 15.6781 22.2402C15.6418 22.1978 15.6055 22.1551 15.5696 22.1119C15.3799 21.8831 15.1523 21.6648 14.9114 21.4337C14.762 21.2903 14.6076 21.1423 14.4558 20.9853C13.9095 20.4201 13.3649 19.8535 12.8202 19.2869C12.129 18.5679 11.4379 17.8489 10.7436 17.1331C10.0699 16.4389 9.77444 15.456 9.97238 14.568C10.1665 13.6965 10.7893 13.0218 11.7258 12.6681C13.0084 12.1837 14.3114 11.6856 15.5714 11.2038L16.999 10.6583C17.1541 10.5991 17.31 10.5337 17.475 10.4646C17.869 10.2992 18.2762 10.1285 18.7273 10.0194C18.7337 9.99069 18.7413 9.94869 18.7491 9.88829C18.9377 8.43799 19.1214 6.96119 19.299 5.53299C19.3941 4.76859 19.4893 4.00399 19.5855 3.23979L19.5913 3.19409C19.6336 2.85719 19.6773 2.50889 19.7581 2.15259C19.9489 1.31129 20.4989 0.636291 21.2672 0.300491C22.0353 -0.0353093 22.9063 0.0216907 23.6571 0.456491C25.5125 1.53089 27.5246 2.73239 29.8086 4.12959C30.2006 4.36949 30.2394 4.34479 30.4539 4.20809C31.6147 3.46909 32.8102 2.75369 33.9665 2.06179C34.7464 1.59519 35.5531 1.11249 36.3377 0.629291C37.8867 -0.324709 39.3388 -0.165709 40.2221 1.05419C40.6203 1.60409 40.7645 2.29119 40.8611 2.95189C41.0279 4.09249 41.174 5.25109 41.3152 6.37169C41.3993 7.03749 41.4861 7.72609 41.576 8.40109C41.6328 8.82679 41.6583 9.53089 41.9023 9.72519C41.935 9.75129 41.8754 9.69299 41.9023 9.72519C42.2886 10.19 42.9374 10.2413 43.5049 10.4509C45.2005 11.0772 46.9538 11.7249 48.6826 12.3507C49.728 12.7291 50.4186 13.446 50.6272 14.3694C50.8403 15.3128 50.5039 16.3465 49.7272 17.1344C48.3812 18.4999 47.0291 19.9088 45.7215 21.2714L45.4396 21.5652C45.2031 21.8115 44.9659 22.0283 44.8723 22.3613C44.8688 22.374 44.9096 22.7541 44.9139 22.7673C45.1941 23.6191 45.3534 24.0838 45.6368 24.9207C46.0977 26.2819 46.5745 27.6893 47.0129 29.0883C47.5155 30.6925 47.1126 31.6386 46.6859 32.1495C46.2511 32.6707 45.3667 33.246 43.6233 33.025C43.3775 32.994 43.1323 32.9594 42.887 32.9247C42.4565 32.864 42.0498 32.8067 41.6393 32.7676C41.2175 32.7273 40.7812 32.6587 40.3192 32.5861C39.1585 32.4036 37.8427 32.1965 37.1206 32.5667L37.0833 32.5847C36.3647 32.9115 35.4649 34.4354 34.9815 35.254C34.8172 35.5324 34.6752 35.7729 34.5481 35.966V35.9661C34.3625 36.2482 34.1708 36.5289 33.9855 36.8004C33.5615 37.4216 33.1611 38.0081 32.8146 38.6264C32.3419 39.4697 31.4845 39.9832 30.5213 39.9997C30.5057 39.9999 30.49 40 30.4744 40Z" fill="#F2F3F4"/>
<path fill-rule="evenodd" clip-rule="evenodd" d="M91.3115 15.0203L86.6664 9.62976H81.46L88.7634 17.9113L91.3115 15.0203Z" fill="#F2F2F2"/>
<path fill-rule="evenodd" clip-rule="evenodd" d="M94.0767 23.7284L98.7821 29.2969H104L96.5375 20.604L94.0767 23.7284Z" fill="#F2F2F2"/>
<path fill-rule="evenodd" clip-rule="evenodd" d="M138.722 15.5626L138.798 20.3735L134.776 24.4112V9.58076L139.113 9.61516L145.771 17.654L145.719 13.396L149.828 9.04126V23.7369H145.575L138.722 15.5626Z" fill="#F2F2F2"/>
<path fill-rule="evenodd" clip-rule="evenodd" d="M128.67 9.62207H121.868C119.562 9.62207 117.693 11.4938 117.693 13.8028V20.0741C117.693 22.383 119.562 24.2547 121.868 24.2547H128.67C130.976 24.2547 132.845 22.383 132.845 20.0741V13.8028C132.845 11.4938 130.976 9.62207 128.67 9.62207ZM128.327 12.9949C128.995 12.9949 129.539 13.5393 129.539 14.2085V19.5422C129.539 20.2115 128.995 20.7559 128.327 20.7559H122.428C121.759 20.7559 121.216 20.2115 121.216 19.5422V14.2085C121.216 13.5393 121.759 12.9949 122.428 12.9949H128.327Z" fill="#F2F2F2"/>
<path fill-rule="evenodd" clip-rule="evenodd" d="M114.303 20.8992H108.252C107.584 20.8992 107.04 20.3548 107.04 19.6856V14.2273C107.04 13.5581 107.584 13.0137 108.252 13.0137H114.461H114.865L117.693 9.62207H114.461H107.659C105.353 9.62207 103.484 11.4937 103.484 13.8027V20.074C103.484 22.383 105.353 24.2547 107.659 24.2547H114.461H117.491L114.303 20.8992Z" fill="#F2F2F2"/>
<mask id="mask0_609_4876" style="mask-type:alpha" maskUnits="userSpaceOnUse" x="104" y="26" width="46" height="4">
<path fill-rule="evenodd" clip-rule="evenodd" d="M104.876 26.0471H149.901V29.2784H104.876V26.0471Z" fill="white"/>
</mask>
<g mask="url(#mask0_609_4876)">
<path fill-rule="evenodd" clip-rule="evenodd" d="M149.901 29.2222L108.015 29.2784L104.876 26.0513L149.901 26.0471V29.2222Z" fill="#F2F2F2"/>
</g>
<path fill-rule="evenodd" clip-rule="evenodd" d="M93.0733 22.2862L95.585 19.2472L95.5763 19.2369L103.454 9.62976H98.2047L93.379 15.2485L93.3792 15.2489L88.1296 21.3213L88.1291 21.321L81.3643 29.4287L87.2719 29.3905L93.0626 22.2729L93.0733 22.2862Z" fill="#F2F3F4"/>
<path fill-rule="evenodd" clip-rule="evenodd" d="M64.2278 9.62976H80.377L76.9025 13.7535H69.0704V17.6618H81.0016L77.7975 21.142H69.0704V25.6319H81.1882L77.6411 29.4756H64.2161L64.2278 9.62976Z" fill="#F2F2F2"/>
</svg>
