<svg width="81" height="20" viewBox="0 0 81 20" fill="none" xmlns="http://www.w3.org/2000/svg">
<path fill-rule="evenodd" clip-rule="evenodd" d="M26.2296 5.74694L21.8894 0.573395H17.0247L23.8487 8.52158L26.2296 5.74694Z" fill="#F2F2F2"/>
<path fill-rule="evenodd" clip-rule="evenodd" d="M28.813 14.1047L33.2095 19.449H38.085L31.1123 11.106L28.813 14.1047Z" fill="#F2F2F2"/>
<path fill-rule="evenodd" clip-rule="evenodd" d="M70.5275 6.2675L70.5993 10.8848L66.8406 14.76V0.526453L70.8934 0.559469L77.1138 8.27473L77.0655 4.1881L80.9048 0.00866699V14.1128H76.9309L70.5275 6.2675Z" fill="#F2F2F2"/>
<path fill-rule="evenodd" clip-rule="evenodd" d="M61.1357 0.566071H54.7805C52.626 0.566071 50.8794 2.36244 50.8794 4.57851V10.5974C50.8794 12.8134 52.626 14.6097 54.7805 14.6097H61.1357C63.2902 14.6097 65.0368 12.8134 65.0368 10.5974V4.57851C65.0368 2.36244 63.2902 0.566071 61.1357 0.566071ZM60.8153 3.80312C61.4397 3.80312 61.9478 4.32561 61.9478 4.96788V10.0869C61.9478 10.7293 61.4397 11.2518 60.8153 11.2518H55.3032C54.6787 11.2518 54.1707 10.7293 54.1707 10.0869V4.96788C54.1707 4.32561 54.6787 3.80312 55.3032 3.80312H60.8153Z" fill="#F2F2F2"/>
<path fill-rule="evenodd" clip-rule="evenodd" d="M47.7122 11.3893H42.0586C41.4341 11.3893 40.926 10.8668 40.926 10.2246V4.98595C40.926 4.34369 41.4341 3.8212 42.0586 3.8212H47.8594H48.2367L50.8794 0.566101H47.8594H41.504C39.3495 0.566101 37.603 2.36237 37.603 4.57844V10.5973C37.603 12.8134 39.3495 14.6098 41.504 14.6098H47.8594H50.6906L47.7122 11.3893Z" fill="#F2F2F2"/>
<mask id="mask0_609_4528" style="mask-type:alpha" maskUnits="userSpaceOnUse" x="38" y="16" width="43" height="4">
<path fill-rule="evenodd" clip-rule="evenodd" d="M38.9041 16.3301H80.9732V19.4313H38.9041V16.3301Z" fill="white"/>
</mask>
<g mask="url(#mask0_609_4528)">
<path fill-rule="evenodd" clip-rule="evenodd" d="M80.9733 19.3774L41.8366 19.4313L38.9041 16.3341L80.9733 16.3301V19.3774Z" fill="#F2F2F2"/>
</g>
<path fill-rule="evenodd" clip-rule="evenodd" d="M27.8758 12.7204L30.2226 9.80375L30.2145 9.79386L37.5746 0.573425H32.6703L28.1614 5.96599L28.1616 5.96637L23.2566 11.7944L23.2561 11.7941L16.9353 19.5755L22.4551 19.5388L27.8657 12.7077L27.8758 12.7204Z" fill="#1850E2"/>
<path fill-rule="evenodd" clip-rule="evenodd" d="M0.923608 0.573364H16.0127L12.7663 4.53109H5.44828V8.28209H16.5963L13.6025 11.6222H5.44828V15.9314H16.7707L13.4564 19.6204H0.912598L0.923608 0.573364Z" fill="#F2F2F2"/>
</svg>
