<svg width="98" height="20" viewBox="0 0 98 20" fill="none" xmlns="http://www.w3.org/2000/svg">
<path fill-rule="evenodd" clip-rule="evenodd" d="M43.7091 12.6564L46.2207 9.6174L46.2121 9.6071L54.0892 0H48.8404L44.0148 5.6187L44.015 5.6191L38.7654 11.6915L38.7649 11.6912L32 19.7989L37.9076 19.7607L43.6983 12.6431L43.7091 12.6564Z" fill="#1850E2"/>
<path fill-rule="evenodd" clip-rule="evenodd" d="M54.7091 12.6564L57.2207 9.6174L57.2121 9.6071L65.0892 0H59.8404L55.0148 5.6187L55.015 5.6191L49.7654 11.6915L49.7649 11.6912L43 19.7989L48.9076 19.7607L54.6983 12.6431L54.7091 12.6564Z" fill="#1850E2"/>
<path opacity="0.7" fill-rule="evenodd" clip-rule="evenodd" d="M65.7091 12.6564L68.2207 9.6174L68.2121 9.6071L76.0892 0H70.8404L66.0148 5.6187L66.015 5.6191L60.7654 11.6915L60.7649 11.6912L54 19.7989L59.9076 19.7607L65.6983 12.6431L65.7091 12.6564Z" fill="#1850E2"/>
<path opacity="0.4" fill-rule="evenodd" clip-rule="evenodd" d="M75.7091 12.6564L78.2207 9.6174L78.2121 9.6071L86.0892 0H80.8404L76.0148 5.6187L76.015 5.6191L70.7654 11.6915L70.7649 11.6912L64 19.7989L69.9076 19.7607L75.6983 12.6431L75.7091 12.6564Z" fill="#1850E2"/>
<path opacity="0.4" fill-rule="evenodd" clip-rule="evenodd" d="M86.7091 12.6564L89.2207 9.6174L89.2121 9.6071L97.0892 0H91.8404L87.0148 5.6187L87.015 5.6191L81.7654 11.6915L81.7649 11.6912L75 19.7989L80.9076 19.7607L86.6983 12.6431L86.7091 12.6564Z" fill="#1850E2"/>
<path opacity="0.4" fill-rule="evenodd" clip-rule="evenodd" d="M22.7091 12.6564L25.2207 9.6174L25.2121 9.6071L33.0892 0H27.8404L23.0148 5.6187L23.015 5.6191L17.7654 11.6915L17.7649 11.6912L11 19.7989L16.9076 19.7607L22.6983 12.6431L22.7091 12.6564Z" fill="#1850E2"/>
<path opacity="0.2" fill-rule="evenodd" clip-rule="evenodd" d="M11.7091 12.6564L14.2207 9.6174L14.2121 9.6071L22.0892 0H16.8404L12.0148 5.6187L12.015 5.6191L6.76538 11.6915L6.76488 11.6912L0 19.7989L5.90762 19.7607L11.6983 12.6431L11.7091 12.6564Z" fill="#1850E2"/>
<path opacity="0.7" fill-rule="evenodd" clip-rule="evenodd" d="M32.7091 12.6564L35.2207 9.6174L35.2121 9.6071L43.0892 0H37.8404L33.0148 5.6187L33.015 5.6191L27.7654 11.6915L27.7649 11.6912L21 19.7989L26.9076 19.7607L32.6983 12.6431L32.7091 12.6564Z" fill="#1850E2"/>
</svg>
