<svg width="71" height="62" viewBox="0 0 71 62" fill="none" xmlns="http://www.w3.org/2000/svg">
<path fill-rule="evenodd" clip-rule="evenodd" d="M27.9058 34.9964C27.9058 39.4709 31.7776 43.0982 36.5538 43.0982C41.33 43.0982 45.2019 39.4709 45.2019 34.9964C45.2019 30.5219 41.33 26.8945 36.5538 26.8945C31.7776 26.8945 27.9058 30.5219 27.9058 34.9964ZM32.2298 34.9964C32.2298 32.7591 34.1657 30.9455 36.5538 30.9455V30.9165C37.706 30.9165 38.8105 31.3473 39.6223 32.1132C40.4341 32.8792 40.8861 33.917 40.8778 34.9964C40.8778 37.2336 38.9419 39.0473 36.5538 39.0473C34.1657 39.0473 32.2298 37.2336 32.2298 34.9964Z" fill="#F2F2F2"/>
<path fill-rule="evenodd" clip-rule="evenodd" d="M13.4858 61.4706H57.1646C64.3327 61.4356 70.1266 55.9869 70.1367 49.2716V8.49609H0.136963V48.9648C0.14717 55.8676 6.11769 61.4611 13.4858 61.4706ZM10.6382 48.9648V18.3341H59.6849V49.2716C59.6849 50.5756 58.5565 51.6327 57.1646 51.6327H13.4858C11.9145 51.6295 10.6416 50.4369 10.6382 48.9648Z" fill="#F2F2F2"/>
<rect x="52.8591" y="0.498047" width="17.3517" height="5.20833" fill="#F2F2F2"/>
</svg>
